<svg xmlns="http://www.w3.org/2000/svg" viewBox="0 0 720 720">
  <defs>
    <radialGradient id="g" cx="50%" cy="50%" r="50%">
      <stop offset="0" stop-color="#e9cbcb" stop-opacity=".82"/>
      <stop offset="1" stop-color="#e9cbcb" stop-opacity="0"/>
    </radialGradient>
  </defs>
  <circle cx="360" cy="360" r="275" fill="url(#g)"/>
  <g fill="none" stroke="#8b4053" stroke-width="1.5" opacity=".7">
    <ellipse cx="360" cy="360" rx="290" ry="116" transform="rotate(18 360 360)"/>
    <ellipse cx="360" cy="360" rx="275" ry="98" transform="rotate(72 360 360)"/>
    <ellipse cx="360" cy="360" rx="260" ry="86" transform="rotate(132 360 360)"/>
  </g>
  <g fill="#4e6653" opacity=".8">
    <path d="M333 328c-42-58-97-69-115-29-18 39 32 72 101 59-62 28-81 81-46 105 36 24 79-21 77-90 14 69 62 103 96 73 34-30 6-79-61-98 69-2 110-40 91-79-19-40-76-25-143 59Z"/>
  </g>
  <circle cx="354" cy="354" r="36" fill="#f6f0e6"/>
  <circle cx="354" cy="354" r="13" fill="#b96d55"/>
</svg>
